<svg id="Capa_1" enable-background="new 0 0 512 512" height="512" viewBox="0 0 512 512" width="512" xmlns="http://www.w3.org/2000/svg"><g><g><path d="m502 256c0 135.96-110.02 246-246 246-135.96 0-246-110.02-246-246 0-135.96 110.02-246 246-246 135.96 0 246 110.02 246 246z" fill="#fff2a0"/><path d="m406.26 215.74c-17.34-10.02-36.28-14.77-54.97-14.76 9.36-16.17 14.71-34.95 14.71-54.98 0-36.01-17.3-60.95-44.05-75.29 8.86 12.87 14.05 28.48 14.05 45.29 0 44.266-35.92 80-80 80-44.092 0-80-35.747-80-80 0-16.81 5.19-32.42 14.05-45.29-26.75 14.34-44.05 39.28-44.05 75.29 0 20.03 5.35 38.81 14.71 54.98-18.69-.01-37.63 4.74-54.97 14.76-31.19 18-44.14 45.46-43.19 75.79 6.73-14.11 17.65-26.41 32.21-34.81 38.219-22.068 87.157-9.02 109.28 29.28 22.02 38.141 9.099 87.109-29.28 109.28-14.56 8.41-30.67 11.72-46.25 10.48 25.79 15.99 56.04 18.51 87.23.5 17.34-10.01 30.93-24.04 40.26-40.22 9.33 16.18 22.92 30.21 40.26 40.22 31.19 18.01 61.44 15.49 87.23-.5-15.58 1.24-31.69-2.07-46.25-10.48-38.137-22.032-51.439-70.899-29.28-109.28 22.14-38.329 71.079-51.337 109.28-29.28 14.56 8.4 25.48 20.7 32.21 34.81.95-30.33-12-57.79-43.19-75.79z" fill="#8690a6"/><path d="m355.75 248.95c.17 2.33.25 4.68.25 7.05 0 39.53-22.94 73.71-56.23 89.94-5.04-19.57-2.71-41.06 8.19-59.94 10.9-18.87 28.33-31.63 47.79-37.05z" fill="#ff9256"/><path d="m256 156c20.75 0 40.01 6.32 55.99 17.13-14.43 14.15-34.19 22.87-55.99 22.87s-41.56-8.72-55.99-22.87c15.98-10.81 35.24-17.13 55.99-17.13z" fill="#ff9256"/><circle cx="256" cy="256" fill="#fff2a0" r="20"/><path d="m204.04 286c10.9 18.88 13.23 40.37 8.19 59.94-33.29-16.23-56.23-50.41-56.23-89.94 0-2.37.08-4.72.25-7.05 19.46 5.42 36.89 18.18 47.79 37.05z" fill="#ff9256"/></g><g><path d="m365.984 256.915c15.908-2.627 32.082.281 46.259 8.467 12.325 7.111 22.07 17.642 28.182 30.453 1.989 4.171 6.574 6.43 11.079 5.481 4.516-.948 7.797-4.862 7.941-9.474 1.13-36.076-15.983-66.179-48.183-84.761-13.711-7.924-28.832-13.037-44.406-15.085 6.011-14.496 9.144-30.146 9.144-45.996 0-37.184-17.518-67.052-49.325-84.104-4.067-2.18-9.099-1.294-12.177 2.145-3.077 3.439-3.401 8.537-.785 12.338 8.038 11.678 12.287 25.378 12.287 39.621 0 16.366-5.564 31.818-15.79 44.273-16.488-9.357-35.058-14.273-54.21-14.273s-37.722 4.916-54.211 14.273c-10.224-12.452-15.789-27.905-15.789-44.273 0-14.243 4.249-27.943 12.287-39.62 2.617-3.801 2.292-8.9-.785-12.339-3.077-3.438-8.109-4.324-12.176-2.145-31.808 17.052-49.326 46.92-49.326 84.104 0 15.85 3.133 31.5 9.144 45.997-15.574 2.048-30.694 7.161-44.402 15.083-32.204 18.584-49.316 48.688-48.187 84.764.145 4.612 3.425 8.526 7.941 9.474 4.518.948 9.093-1.317 11.08-5.481 6.11-12.812 15.855-23.342 28.185-30.455 14.174-8.185 30.346-11.092 46.256-8.465.321 38.991 21.09 74.388 54.191 93.893-5.68 15.081-16.281 27.628-30.449 35.812-12.333 7.125-26.324 10.293-40.455 9.171-4.6-.368-8.854 2.464-10.294 6.849s.309 9.186 4.231 11.618c15.521 9.623 32.051 14.438 48.769 14.437 16.323 0 32.824-4.591 48.73-13.775 13.718-7.919 25.704-18.455 35.26-30.914 9.557 12.458 21.542 22.994 35.26 30.913 32.198 18.592 66.824 18.359 97.5-.661 3.923-2.432 5.671-7.233 4.231-11.618-1.439-4.384-5.677-7.219-10.295-6.849-14.135 1.124-28.121-2.047-40.454-9.171-14.168-8.185-24.769-20.732-30.449-35.813 33.064-19.485 53.869-54.859 54.191-93.894zm-19.984-140.915c0-3.56-.207-7.094-.615-10.587 7.01 11.441 10.615 25.085 10.615 40.587 0 17.587-4.621 34.866-13.364 49.97-1.792 3.094-1.794 6.91-.008 10.007 1.786 3.096 5.088 5.002 8.662 5.002h.057c17.459 0 34.719 4.64 49.915 13.421 13.429 7.75 23.444 17.695 29.85 29.49-2.824-2.103-5.785-4.051-8.871-5.832-40.522-23.399-90.907-11.571-117.447 24.565l-19.31-11.149c.335-1.8.516-3.632.516-5.476 0-13.036-8.361-24.152-20-28.28v-22.289c44.251-4.875 80-42.356 80-89.429zm-90 50c13.394 0 26.437 2.937 38.365 8.566-11.307 7.439-24.546 11.434-38.365 11.434s-27.056-3.995-38.364-11.434c11.927-5.629 24.971-8.566 38.364-8.566zm10 90c0 5.436-4.433 10-10 10-5.494 0-10-4.496-10-10 0-5.514 4.486-10 10-10s10 4.486 10 10zm-176.237-7.941c-3.087 1.781-6.048 3.729-8.874 5.833 6.406-11.796 16.423-21.742 29.854-29.493 15.192-8.779 32.449-13.418 49.91-13.418.019 0 .037-.002.057 0 3.574 0 6.876-1.907 8.662-5.002 1.787-3.097 1.784-6.913-.007-10.007-8.743-15.106-13.365-32.386-13.365-49.972 0-15.502 3.605-29.146 10.616-40.587-.409 3.493-.616 7.027-.616 10.587 0 46.975 35.653 84.544 80 89.431v22.289c-11.639 4.128-20 15.243-20 28.28 0 1.845.181 3.677.515 5.477l-19.309 11.148c-26.51-36.099-76.883-47.988-117.443-24.566zm76.554 15.444c24.773 12.45 39.967 38.725 38.346 66.455-22.108-15.263-36.144-39.419-38.346-66.455zm165.921 140.436c3.083 1.781 6.245 3.369 9.476 4.762-13.437.344-27.033-3.352-40.455-11.102-15.217-8.784-27.871-21.425-36.596-36.554-1.786-3.097-5.089-5.005-8.663-5.005s-6.877 1.908-8.663 5.005c-8.724 15.129-21.379 27.77-36.597 36.555-13.422 7.75-27.024 11.445-40.454 11.102 3.23-1.393 6.394-2.981 9.477-4.762 39.495-22.816 55.928-71.912 37.446-113.995l19.319-11.154c5.357 4.57 12.245 7.21 19.473 7.21 7.232 0 14.125-2.643 19.477-7.208l19.315 11.152c-8.059 18.348-9.772 38.741-4.725 58.415.008.034.016.067.025.101 6.082 23.588 21.048 43.29 42.145 55.478zm-24.9-73.981c-1.618-27.673 13.526-53.981 38.346-66.455-2.204 27.036-16.239 51.192-38.346 66.455z"/><circle cx="430" cy="430" r="10"/><path d="m256 0c-141.582 0-256 114.384-256 256 0 141.582 114.384 256 256 256 52.164 0 102.336-15.56 145.091-44.997 4.549-3.132 5.697-9.359 2.565-13.908s-9.359-5.698-13.907-2.565c-39.404 27.13-85.653 41.47-133.749 41.47-130.131 0-236-105.869-236-236s105.869-236 236-236 236 105.869 236 236c0 48.094-14.34 94.344-41.47 133.749-3.132 4.549-1.983 10.775 2.565 13.908 4.549 3.131 10.775 1.982 13.907-2.566 29.438-42.757 44.998-92.928 44.998-145.091 0-141.582-114.384-256-256-256z"/></g></g></svg>