<?xml version="1.0" encoding="iso-8859-1"?>
<!-- Generator: Adobe Illustrator 19.0.0, SVG Export Plug-In . SVG Version: 6.00 Build 0)  -->
<svg version="1.1" id="Capa_1" xmlns="http://www.w3.org/2000/svg" xmlns:xlink="http://www.w3.org/1999/xlink" x="0px" y="0px"
	 viewBox="0 0 512 512" fill="green" style="enable-background:new 0 0 512 512;" xml:space="preserve">
<g>
	<g>
		<path d="M321.525,221.481C354.299,200.035,376,163.007,376,121C376,54.28,322.168,0,256,0S136,54.28,136,121
			c0,42.007,21.701,79.035,54.475,100.481C106.671,249.072,46,328.078,46,421v76c0,8.284,6.716,15,15,15h390c8.284,0,15-6.716,15-15
			v-76C466,328.078,405.329,249.072,321.525,221.481z M166,121c0-50.178,40.374-91,90-91c49.626,0,90,40.822,90,91
			c0,49.626-40.374,90-90,90C206.374,211,166,170.626,166,121z M436,482H76v-61c0-99.252,80.748-180,180-180s180,80.748,180,180V482
			z"/>
	</g>
</g>
<g>
	<g>
		<path d="M376,361h-65.729l-25.854-51.708c-2.808-5.615-8.82-8.888-15.053-8.202c-6.24,0.685-11.393,5.183-12.916,11.272
			l-20.166,80.662l-11.866-23.732C221.875,364.21,216.682,361,211,361h-75c-8.284,0-15,6.716-15,15s6.716,15,15,15h65.729
			l25.854,51.708c2.56,5.12,7.78,8.292,13.411,8.292c6.883,0,12.887-4.68,14.558-11.362l20.166-80.662l11.866,23.732
			C290.125,387.79,295.318,391,301,391h75c8.284,0,15-6.716,15-15S384.284,361,376,361z"/>
	</g>
</g>
<g>
</g>
<g>
</g>
<g>
</g>
<g>
</g>
<g>
</g>
<g>
</g>
<g>
</g>
<g>
</g>
<g>
</g>
<g>
</g>
<g>
</g>
<g>
</g>
<g>
</g>
<g>
</g>
<g>
</g>
</svg>
