<?xml version="1.0" encoding="iso-8859-1"?>
<!-- Generator: Adobe Illustrator 19.0.0, SVG Export Plug-In . SVG Version: 6.00 Build 0)  -->
<svg version="1.1" id="Capa_1" xmlns="http://www.w3.org/2000/svg" xmlns:xlink="http://www.w3.org/1999/xlink" x="0px" y="0px"
	 viewBox="0 0 512 512" style="enable-background:new 0 0 512 512;" xml:space="preserve">
<path style="fill:#1689FC;" d="M256,211c-115.8,0-210,94.2-210,210v76c0,8.401,6.599,15,15,15h390c8.401,0,15-6.599,15-15v-76
	C466,305.2,371.8,211,256,211z"/>
<path style="fill:#136EF1;" d="M466,421v76c0,8.401-6.599,15-15,15H256V211C371.8,211,466,305.2,466,421z"/>
<path style="fill:#17ACE8;" d="M256,0c-66.301,0-120,54.699-120,121s53.699,120,120,120s120-53.699,120-120S322.301,0,256,0z"/>
<path style="fill:#1689FC;" d="M256,241V0c66.301,0,120,54.699,120,121S322.301,241,256,241z"/>
<path style="fill:#E5E5E5;" d="M391,376c0,8.401-6.599,15-15,15h-75c-5.7,0-10.8-3.3-13.5-8.401L275.8,358.9L256,437.199
	l-0.601,2.401c-1.5,6-6.599,10.499-12.9,11.4H241c-5.7,0-10.8-3.3-13.5-8.401L201.7,391H136c-8.401,0-15-6.599-15-15s6.599-15,15-15
	h75c5.7,0,10.8,3.3,13.5,8.401l11.7,23.699l19.799-78.3l0.601-2.401c1.5-6,6.599-10.499,12.9-11.4
	c6.299-0.601,11.999,2.701,15,8.401l25.8,51.6H376C384.401,361,391,367.599,391,376z"/>
<path style="fill:#D9D9D9;" d="M391,376c0,8.401-6.599,15-15,15h-75c-5.7,0-10.8-3.3-13.5-8.401L275.8,358.9L256,437.199V314.801
	l0.601-2.401c1.5-6,6.599-10.499,12.9-11.4c6.299-0.601,11.999,2.701,15,8.401L310.3,361H376C384.401,361,391,367.599,391,376z"/>
<g>
</g>
<g>
</g>
<g>
</g>
<g>
</g>
<g>
</g>
<g>
</g>
<g>
</g>
<g>
</g>
<g>
</g>
<g>
</g>
<g>
</g>
<g>
</g>
<g>
</g>
<g>
</g>
<g>
</g>
</svg>
